GIL11_slow2_RRA_states
nRows=5
nColumns=47

# SIMM Motion File Header:
name GIL11_slow2_RRA_states
datacolumns 47
datarows 5
otherdata 1
range 1.19916999999997880000 1.20116999999997850000
endheader
time	pelvis_tx	pelvis_ty	pelvis_tz	pelvis_tilt	pelvis_list	pelvis_rotation	hip_flexion_r	hip_adduction_r	hip_rotation_r	knee_angle_r	ankle_angle_r	subtalar_angle_r	mtp_angle_r	hip_flexion_l	hip_adduction_l	hip_rotation_l	knee_angle_l	ankle_angle_l	subtalar_angle_l	mtp_angle_l	lumbar_extension	lumbar_bending	lumbar_rotation	pelvis_tx_u	pelvis_ty_u	pelvis_tz_u	pelvis_tilt_u	pelvis_list_u	pelvis_rotation_u	hip_flexion_r_u	hip_adduction_r_u	hip_rotation_r_u	knee_angle_r_u	ankle_angle_r_u	subtalar_angle_r_u	mtp_angle_r_u	hip_flexion_l_u	hip_adduction_l_u	hip_rotation_l_u	knee_angle_l_u	ankle_angle_l_u	subtalar_angle_l_u	mtp_angle_l_u	lumbar_extension_u	lumbar_bending_u	lumbar_rotation_u
      1.19916999999997880000	      2.17690398485653610000	      0.87703198442900177000	     -0.26004574671675990000	     -5.33827263146439710000	     -2.54616567676748140000	      3.84083273230452790000	      4.40282899649582670000	      5.29538716404398540000	      7.59633070921818020000	     -3.19033045537220340000	      3.49209419450281680000	     -0.00000000000006614644	     -0.00000000000008600232	     24.28232825875699400000	     -4.57433522952884000000	     12.28970634029807300000	    -50.38338404952760600000	      0.93988930542452076000	     -0.00000000000042626471	      0.00000000000081400299	     -0.38490249103864577000	      1.66770753910524410000	      2.17930665595573460000	      0.62378496578435882000	     -0.03028585112889692300	     -0.00445472178425113800	     -6.79725865691303710000	     23.92686278530073100000	    -10.95674316726948500000	    -35.09811762192110500000	    -17.33979171117139700000	      5.31064292434118990000	    -15.45472840525790100000	     55.22073440194396500000	     -0.00000000000049999778	      0.00000000000026115930	     93.15423635242753200000	     25.58395178711125300000	    -20.64714222455482000000	    142.30426898780743000000	     69.14281665830758100000	     -0.00000000000076790473	      0.00000000000154836706	    -10.77644971844270700000	    -24.38446642163950500000	     18.60433930642004100000
      1.19966999999997870000	      2.17721588042151780000	      0.87701668896823792000	     -0.26004804839213530000	     -5.34170518760982650000	     -2.53419801188859850000	      3.83533795932079840000	      4.38532472024724120000	      5.28671301055695060000	      7.59888634157820510000	     -3.19807327107331530000	      3.51971033454905900000	     -0.00000000000006640011	     -0.00000000000008587366	     24.32888855937678200000	     -4.56156399189581930000	     12.27923569611662200000	    -50.31211251505301600000	      0.97427160316981620000	     -0.00000000000042664854	      0.00000000000081477627	     -0.39024780424885802000	      1.65551699110087050000	      2.18863211808965150000	      0.62379820074797054000	     -0.03089597947232175500	     -0.00475201630613549410	     -6.93270341420323530000	     23.94352583334621100000	    -11.02220634320725300000	    -34.91941868195369400000	    -17.35647265165148700000	      4.91142981621027630000	    -15.51639076188149800000	     55.24399119586658500000	     -0.00000000000050995940	      0.00000000000023285759	     93.08673268764685800000	     25.50063201746457200000	    -21.23563112195667600000	    142.78102818051113000000	     68.38612196863204000000	     -0.00000000000076714206	      0.00000000000154407953	    -10.60490173609589200000	    -24.37738933413388400000	     18.69717187926117700000
      1.20016999999997860000	      2.17752778396429440000	      0.87700108847627078000	     -0.26005049877650027000	     -5.34520506474284400000	     -2.52222241841561970000	      3.82981067517896130000	      4.36790913541290760000	      5.27803103494520800000	      7.60124168757587350000	     -3.20584669623791550000	      3.54733833923107910000	     -0.00000000000006665748	     -0.00000000000008575072	     24.37541474758511100000	     -4.54883495743015680000	     12.26847053010127900000	    -50.24060385472050400000	      1.00827519416810160000	     -0.00000000000042703215	      0.00000000000081554831	     -0.39550750097665155000	      1.64333048222394810000	      2.19800347802871880000	      0.62381687777468919000	     -0.03150594660181180200	     -0.00504957099979087660	     -7.06652718049033710000	     23.95858399846262200000	    -11.08677419029925700000	    -34.74337437107085000000	    -17.37109227146449100000	      4.50950848644694610000	    -15.57715371637162600000	     55.26817033965110000000	     -0.00000000000051445467	      0.00000000000024564035	     93.01776590417358600000	     25.41515285801463600000	    -21.82519375132858700000	    143.25278658183706000000	     67.62802885517015700000	     -0.00000000000076725430	      0.00000000000154420611	    -10.43400319343190900000	    -24.36831756680453900000	     18.78790555247438800000
      1.20066999999997860000	      2.17783969820445830000	      0.87698518306199214000	     -0.26005309801224707000	     -5.34877143906263620000	     -2.51023969382683900000	      3.82425134063854340000	      4.35058089692089390000	      5.26934225806387690000	      7.60339540220478320000	     -3.21365027525108580000	      3.57497866153192370000	     -0.00000000000006691134	     -0.00000000000008564110	     24.42190607496581500000	     -4.53614919300667730000	     12.25741034077421100000	    -50.16886055845006400000	      1.04189942176535830000	     -0.00000000000042741611	      0.00000000000081632082	     -0.40068192311661455000	      1.63114900423227980000	      2.20741966184387370000	      0.62384098577747571000	     -0.03211567086330474600	     -0.00534742000463020970	     -7.19869641559892500000	     23.97204654923552900000	    -11.15040891048978400000	    -34.57002400972093900000	    -17.38367322972509400000	      4.10490053590753320000	    -15.63701939461545400000	     55.29329015944370700000	     -0.00000000000050055826	      0.00000000000019878880	     92.94729730980130000000	     25.32755001890974000000	    -22.41572520707520900000	    143.71956452862347000000	     66.86867513236535400000	     -0.00000000000076860802	      0.00000000000154687709	    -10.26379890946981800000	    -24.35726164914320800000	     18.87646832507832800000
      1.20116999999997850000	      2.17815162585312150000	      0.87696897285900532000	     -0.26005584625118611000	     -5.35240348019680480000	     -2.49825063633861390000	      3.81866042798174550000	      4.33333865633989920000	      5.26064769773301940000	      7.60534614422821240000	     -3.22148356627716750000	      3.60263178409813320000	     -0.00000000000006716483	     -0.00000000000008553551	     24.46836178856386800000	     -4.52350775549679620000	     12.24605466071660800000	    -50.09688511673674300000	      1.07514368206555310000	     -0.00000000000042780039	      0.00000000000081709433	     -0.40577142265874994000	      1.61897354955224730000	      2.21687957288913530000	      0.62387051206320776000	     -0.03272507278748298200	     -0.00564559666824327330	     -7.32917971192159890000	     23.98392228971909600000	    -11.21307333072553400000	    -34.39940424231549800000	    -17.39423810390158900000	      3.69762987910382400000	    -15.69598891465897800000	     55.31933897806141000000	     -0.00000000000050254217	      0.00000000000018970178	     92.87529077329298800000	     25.23785880991707500000	    -23.00712101047290400000	    144.18138266794918000000	     66.10819892790705400000	     -0.00000000000076833604	      0.00000000000154732339	    -10.09433148477953200000	    -24.34423192376751600000	     18.96279025312638600000
